<?xml version="1.0" encoding="UTF-8"?>
<!-- Created with Inkscape (http://www.inkscape.org/) -->
<svg width="24" height="24" version="1.1" xmlns="http://www.w3.org/2000/svg" xmlns:cc="http://creativecommons.org/ns#" xmlns:dc="http://purl.org/dc/elements/1.1/" xmlns:rdf="http://www.w3.org/1999/02/22-rdf-syntax-ns#">
 <metadata>
  <rdf:RDF>
   <cc:Work rdf:about="">
    <dc:format>image/svg+xml</dc:format>
    <dc:type rdf:resource="http://purl.org/dc/dcmitype/StillImage"/>
    <dc:title/>
   </cc:Work>
  </rdf:RDF>
 </metadata>
 <g transform="translate(-492 -607.36)" stroke-width="0">
  <path transform="translate(492 607.36)" d="m2.7773 2-0.77734 2h6.5371l-6.459 16.609v0.001953c-6.571e-4 2e-3 -0.0013131 0.003859-0.0019531 0.00586l-0.0039063 0.009765c-0.047709 0.11846-0.072241 0.24522-0.072266 0.37305 0 0.55228 0.44772 1 1 1h12c0.03129 1.66e-4 0.06258-0.001106 0.09375-0.003906 3.8278-0.051276 6.9045-3.1679 6.9062-6.9961 0-3.866-3.134-7-7-7h-1.5762l-0.77734 2h2.3535c2.7614 0 5 2.2386 5 5s-2.2386 5-5 5h-10.539l6.4531-16.594c0.056756-0.12791 0.086032-0.26631 0.085938-0.40625 0-0.55228-0.44772-1-1-1h-7.2227z"/>
  <path transform="translate(492 607.36)" d="m11.093 14-0.77734 2h4.6847c0.55228 0 1-0.44772 1-1s-0.44772-1-1-1z"/>
 </g>
</svg>
