<?xml version="1.0" encoding="UTF-8" standalone="no"?>
<!-- Created with Inkscape (http://www.inkscape.org/) -->

<svg
   xmlns:dc="http://purl.org/dc/elements/1.1/"
   xmlns:cc="http://creativecommons.org/ns#"
   xmlns:rdf="http://www.w3.org/1999/02/22-rdf-syntax-ns#"
   xmlns:svg="http://www.w3.org/2000/svg"
   xmlns="http://www.w3.org/2000/svg"
   xmlns:sodipodi="http://sodipodi.sourceforge.net/DTD/sodipodi-0.dtd"
   xmlns:inkscape="http://www.inkscape.org/namespaces/inkscape"
   width="72"
   height="72"
   id="svg2"
   version="1.1"
   inkscape:version="0.48.4 r9939"
   sodipodi:docname="logo.svg"
   inkscape:export-filename="/home/jon/projects/prgmr/zedboot.test/public_html/images/apple-touch-icon.png"
   inkscape:export-xdpi="71.25"
   inkscape:export-ydpi="71.25">
  <defs
     id="defs4">
    <filter
       inkscape:collect="always"
       id="filter4646"
       x="-0.099428572"
       width="1.1988571"
       y="-0.26100001"
       height="1.522"
       color-interpolation-filters="sRGB">
      <feGaussianBlur
         inkscape:collect="always"
         stdDeviation="0.87"
         id="feGaussianBlur4648" />
    </filter>
    <filter
       inkscape:collect="always"
       id="filter4662"
       x="-0.14399999"
       width="1.288"
       y="-0.14399999"
       height="1.288"
       color-interpolation-filters="sRGB">
      <feGaussianBlur
         inkscape:collect="always"
         stdDeviation="3.36"
         id="feGaussianBlur4664" />
    </filter>
  </defs>
  <sodipodi:namedview
     id="base"
     pagecolor="#ffffff"
     bordercolor="#666666"
     borderopacity="1.0"
     inkscape:pageopacity="0.0"
     inkscape:pageshadow="2"
     inkscape:zoom="8"
     inkscape:cx="10.42164"
     inkscape:cy="33.18143"
     inkscape:document-units="px"
     inkscape:current-layer="layer1"
     showgrid="true"
     showguides="true"
     inkscape:guide-bbox="true"
     inkscape:snap-grids="true"
     inkscape:snap-to-guides="false"
     inkscape:snap-global="true"
     inkscape:window-width="1600"
     inkscape:window-height="872"
     inkscape:window-x="0"
     inkscape:window-y="0"
     inkscape:window-maximized="1"
     fit-margin-top="0"
     fit-margin-left="0"
     fit-margin-right="0"
     fit-margin-bottom="0">
    <inkscape:grid
       type="xygrid"
       id="grid3126"
       empspacing="5"
       visible="true"
       enabled="true"
       snapvisiblegridlinesonly="true"
       dotted="false"
       originx="-492px"
       originy="-421px" />
  </sodipodi:namedview>
  <metadata
     id="metadata7">
    <rdf:RDF>
      <cc:Work
         rdf:about="">
        <dc:format>image/svg+xml</dc:format>
        <dc:type
           rdf:resource="http://purl.org/dc/dcmitype/StillImage" />
        <dc:title></dc:title>
      </cc:Work>
    </rdf:RDF>
  </metadata>
  <g
     inkscape:label="Layer 1"
     inkscape:groupmode="layer"
     id="layer1"
     transform="translate(-492,-559.36218)">
    <path
       id="path3128-1"
       d="m 499.875,567.375 0,8 16,0 -16,38 0,10 36,0 c 11.04569,0 20,-8.95431 20,-20 0,-11.04569 -8.95431,-20 -20,-20 l -8,-0.0128 -3,8.01282 11,0 c 6.62742,0 12,5.37259 12,12 0,6.62742 -5.37258,12 -12,12 l -22,0 -6,0 16,-39 0,-9 z"
       style="fill:#000000;fill-opacity:1;stroke:none;filter:url(#filter4662)"
       inkscape:connector-curvature="0"
       sodipodi:nodetypes="cccccsssccsssccccc" />
    <g
       id="g3169"
       style="fill:#ffffff;fill-opacity:1;stroke:none">
      <path
         id="path3128"
         d="m 500,567.375 0,8 16,0 -16,38 0,10 36,0 c 11.04569,0 20,-8.95431 20,-20 0,-11.04569 -8.95431,-20 -20,-20 l -8,-0.0128 -3,8.01282 11,0 c 6.62742,0 12,5.37259 12,12 0,6.62742 -5.37258,12 -12,12 l -22,0 -6,0 16,-39 0,-9 z"
         style="fill:#ffffff;fill-opacity:1;stroke:none"
         inkscape:connector-curvature="0"
         sodipodi:nodetypes="cccccsssccsssccccc" />
    </g>
    <path
       style="fill:#000000;fill-opacity:1;stroke:none;filter:url(#filter4646)"
       d="m 539.75,603.36218 c 0,2.20914 -1.79086,4 -4,4 -2.20914,0 -17,0 -17,0 l 3,-8 c 0,0 12.67356,0 14,0 2.20914,0 4,1.79086 4,4 z"
       id="path3144-9"
       inkscape:connector-curvature="0"
       sodipodi:nodetypes="ssccss" />
    <path
       style="fill:#ffffff;fill-opacity:1;stroke:none"
       d="m 539.875,603.23718 c 0,2.20914 -1.79086,4 -4,4 -2.20914,0 -17,0 -17,0 l 3,-8 c 0,0 12.67356,0 14,0 2.20914,0 4,1.79086 4,4 z"
       id="path3144"
       inkscape:connector-curvature="0"
       sodipodi:nodetypes="ssccss" />
  </g>
</svg>
