<?xml version="1.0" encoding="UTF-8"?>
<!-- Created with Inkscape (http://www.inkscape.org/) -->
<svg width="72" height="72" version="1.1" xmlns="http://www.w3.org/2000/svg" xmlns:cc="http://creativecommons.org/ns#" xmlns:dc="http://purl.org/dc/elements/1.1/" xmlns:rdf="http://www.w3.org/1999/02/22-rdf-syntax-ns#">
 <defs>
  <filter id="filter4646" x="-.099429" y="-.261" width="1.1989" height="1.522" color-interpolation-filters="sRGB">
   <feGaussianBlur stdDeviation="0.87"/>
  </filter>
  <filter id="filter4662" x="-.144" y="-.144" width="1.288" height="1.288" color-interpolation-filters="sRGB">
   <feGaussianBlur stdDeviation="3.36"/>
  </filter>
 </defs>
 <metadata>
  <rdf:RDF>
   <cc:Work rdf:about="">
    <dc:format>image/svg+xml</dc:format>
    <dc:type rdf:resource="http://purl.org/dc/dcmitype/StillImage"/>
    <dc:title/>
   </cc:Work>
  </rdf:RDF>
 </metadata>
 <g transform="translate(-492 -559.36)">
  <path d="m499.88 567.38v8h16l-16 38v10h36c11.046 0 20-8.9543 20-20s-8.9543-20-20-20l-8-0.0128-3 8.0128h11c6.6274 0 12 5.3726 12 12 0 6.6274-5.3726 12-12 12h-22-6l16-39v-9z" filter="url(#filter4662)"/>
  <g fill="#fff">
   <path d="m500 567.38v8h16l-16 38v10h36c11.046 0 20-8.9543 20-20s-8.9543-20-20-20l-8-0.0128-3 8.0128h11c6.6274 0 12 5.3726 12 12 0 6.6274-5.3726 12-12 12h-22-6l16-39v-9z" fill="#fff"/>
  </g>
  <path d="m539.75 603.36c0 2.2091-1.7909 4-4 4h-17l3-8h14c2.2091 0 4 1.7909 4 4z" filter="url(#filter4646)"/>
  <path d="m539.88 603.24c0 2.2091-1.7909 4-4 4h-17l3-8h14c2.2091 0 4 1.7909 4 4z" fill="#fff"/>
 </g>
</svg>
